<svg xmlns="http://www.w3.org/2000/svg" width="256" height="256" viewBox="0 0 100 100"><rect width="100" height="100" rx="20" fill="#bb945f"></rect><path fill="#fff" d="M9.53 69.80L9.53 69.20L9.83 69.20Q10.25 69.20 10.61 68.84Q10.97 68.48 11.24 68Q11.51 67.52 11.63 66.95Q11.75 66.38 11.75 65.90L11.75 65.90L11.75 33.98Q11.75 33.56 11.63 33.02Q11.51 32.48 11.24 31.97Q10.97 31.46 10.58 31.13Q10.19 30.80 9.71 30.80L9.71 30.80L9.41 30.80L9.41 30.20L19.25 30.20Q24.83 30.20 27.98 32.66Q31.13 35.12 31.13 39.20L31.13 39.20Q31.13 40.94 30.53 42.32Q29.93 43.70 29 44.78Q28.07 45.86 26.99 46.61Q25.91 47.36 24.95 47.84L24.95 47.84Q27.47 48.32 29.15 49.46Q30.83 50.60 31.88 52.07Q32.93 53.54 33.35 55.22Q33.77 56.90 33.77 58.52L33.77 58.52Q33.77 61.64 32.63 63.77Q31.49 65.90 29.60 67.25Q27.71 68.60 25.28 69.20Q22.85 69.80 20.27 69.80L20.27 69.80L9.53 69.80ZM29.69 59.54L29.69 58.88Q29.21 54.26 26.57 51.74Q23.93 49.22 19.13 49.22L19.13 49.22L15.77 49.22L15.77 67.82L19.25 67.82Q24.11 67.82 26.90 65.63Q29.69 63.44 29.69 59.54L29.69 59.54ZM27.23 40.16L27.23 39.74Q27.05 36.26 24.80 34.22Q22.55 32.18 18.77 32.18L18.77 32.18L15.77 32.18L15.77 47.30L18.89 47.30Q21.41 47.30 23 46.64Q24.59 45.98 25.55 44.93Q26.51 43.88 26.87 42.62Q27.23 41.36 27.23 40.16L27.23 40.16ZM38.81 30.80L38.81 30.20L47.33 30.20Q53.99 30.20 57.44 32.75Q60.89 35.30 60.89 39.98L60.89 39.98Q60.89 42.50 59.69 44.48Q58.49 46.46 56.54 47.81Q54.59 49.16 52.16 49.88Q49.73 50.60 47.33 50.60L47.33 50.60L45.05 50.60L45.05 65.90Q45.05 66.38 45.17 66.95Q45.29 67.52 45.56 68Q45.83 68.48 46.16 68.84Q46.49 69.20 46.97 69.20L46.97 69.20L47.27 69.20L47.27 69.80L38.81 69.80L38.81 69.20L39.11 69.20Q39.53 69.20 39.89 68.84Q40.25 68.48 40.49 68Q40.73 67.52 40.85 66.95Q40.97 66.38 40.97 65.90L40.97 65.90L40.97 33.92Q40.97 33.08 40.49 32Q40.01 30.92 39.11 30.80L39.11 30.80L38.81 30.80ZM45.89 32.30L45.05 32.30L45.05 48.50L46.85 48.50Q49.25 48.50 51.14 47.84Q53.03 47.18 54.29 46.10Q55.55 45.02 56.21 43.64Q56.87 42.26 56.87 40.82L56.87 40.82Q56.87 39.08 56.30 37.55Q55.73 36.02 54.44 34.85Q53.15 33.68 51.05 32.99Q48.95 32.30 45.89 32.30L45.89 32.30ZM65.99 69.80L65.99 69.20L66.29 69.20Q66.77 69.20 67.13 68.87Q67.49 68.54 67.76 68.06Q68.03 67.58 68.18 67.04Q68.33 66.50 68.33 66.02L68.33 66.02L68.33 33.92Q68.33 33.50 68.18 32.96Q68.03 32.42 67.76 31.94Q67.49 31.46 67.13 31.13Q66.77 30.80 66.29 30.80L66.29 30.80L65.99 30.80L65.99 30.20L74.63 30.20L74.63 30.80L74.33 30.80Q73.85 30.80 73.49 31.13Q73.13 31.46 72.89 31.94Q72.65 32.42 72.50 32.96Q72.35 33.50 72.35 33.92L72.35 33.92L72.35 67.58L85.49 67.58Q86.63 67.58 87.47 67.04Q88.31 66.50 88.88 65.69Q89.45 64.88 89.72 63.95Q89.99 63.02 89.99 62.24L89.99 62.24L90.59 62.24L90.59 69.80L65.99 69.80Z"></path></svg>